<?xml version="1.0" encoding="utf-8"?>
<!-- Generator: Adobe Illustrator 17.1.0, SVG Export Plug-In . SVG Version: 6.00 Build 0)  -->
<!DOCTYPE svg PUBLIC "-//W3C//DTD SVG 1.1//EN" "http://www.w3.org/Graphics/SVG/1.1/DTD/svg11.dtd">
<svg version="1.1" id="Layer_1" xmlns="http://www.w3.org/2000/svg" xmlns:xlink="http://www.w3.org/1999/xlink" x="0px" y="0px"
	 viewBox="0 0 30.3 27.8" enable-background="new 0 0 30.3 27.8" xml:space="preserve">
<g id="linkedin">
	<g>
		<rect x="0.8" y="8.9" fill="#FFFFFF" width="5.9" height="18.9"/>
		<path fill="#FFFFFF" d="M22.8,8.7c-3.4,0-5.5,1.8-5.9,3.1v-3h-6.6c0.1,1.6,0,18.9,0,18.9h6.6V17.6c0-0.6,0-1.1,0.1-1.5
			c0.5-1.1,1.4-2.3,3.2-2.3c2.3,0,3.3,1.7,3.3,4.3v9.8h6.7V17.3C30.3,11.4,27,8.7,22.8,8.7z"/>
		<path fill="#FFFFFF" d="M3.6,0C1.4,0,0,1.4,0,3.3c0,1.8,1.4,3.3,3.5,3.3h0c2.2,0,3.6-1.4,3.6-3.3C7.1,1.4,5.8,0,3.6,0z"/>
	</g>
</g>
</svg>
