<?xml version="1.0" encoding="utf-8"?>
<!-- Generator: Adobe Illustrator 17.0.2, SVG Export Plug-In . SVG Version: 6.00 Build 0)  -->
<!DOCTYPE svg PUBLIC "-//W3C//DTD SVG 1.1 Tiny//EN" "http://www.w3.org/Graphics/SVG/1.1/DTD/svg11-tiny.dtd">
<svg version="1.1" baseProfile="tiny" id="Layer_1" xmlns="http://www.w3.org/2000/svg" xmlns:xlink="http://www.w3.org/1999/xlink"
	 x="0px" y="0px" width="100px" height="100px" viewBox="0 0 100 100" xml:space="preserve">
<g>
	<path fill="#D2EDF1" d="M97,0H3C1.343,0,0,1.343,0,3v94c0,1.657,1.343,3,3,3h94c1.657,0,3-1.343,3-3V3C100,1.343,98.657,0,97,0"/>
</g>
<g>
	<path fill="#99D6DF" d="M42,59l23-38l24,44H11l14-17L42,59 M24,34c-5.523,0-10-4.477-10-10s4.477-10,10-10c5.523,0,10,4.477,10,10
		S29.523,34,24,34 M93,4H7C5.343,4,4,5.343,4,7v61c0,1.657,1.343,3,3,3h86c1.657,0,3-1.343,3-3V7C96,5.343,94.657,4,93,4"/>
	<polyline fill="#B8E3E9" points="65,21 42,59 25,48 11,65 89,65 65,21 	"/>
	<path fill="#B8E3E9" d="M24,14c-5.523,0-10,4.477-10,10s4.477,10,10,10c5.523,0,10-4.477,10-10S29.523,14,24,14"/>
</g>
<polygon fill="#FFFFFF" points="55.316,37 65,21 72.639,35.005 69,37.654 62,34.23 "/>
<g>
</g>
<g>
</g>
<g>
</g>
<g>
</g>
<g>
</g>
<g>
</g>
<g>
</g>
<g>
</g>
<g>
</g>
<g>
</g>
<g>
</g>
<g>
</g>
<g>
</g>
<g>
</g>
<g>
</g>
</svg>
