<?xml version="1.0" encoding="utf-8"?>
<!-- Generator: Adobe Illustrator 17.1.0, SVG Export Plug-In . SVG Version: 6.00 Build 0)  -->
<!DOCTYPE svg PUBLIC "-//W3C//DTD SVG 1.1//EN" "http://www.w3.org/Graphics/SVG/1.1/DTD/svg11.dtd">
<svg version="1.1" id="Layer_1" xmlns="http://www.w3.org/2000/svg" xmlns:xlink="http://www.w3.org/1999/xlink" x="0px" y="0px"
	 viewBox="0 0 30.3 30.3" enable-background="new 0 0 30.3 30.3" xml:space="preserve">
<g id="pinterest">
	<path fill="#FFFFFF" d="M15.2,0C6.8,0,0,6.8,0,15.2C0,21.4,3.7,26.7,9.1,29c0-1.1,0-2.3,0.3-3.5c0.3-1.2,2-8.3,2-8.3
		s-0.5-1-0.5-2.4c0-2.2,1.3-3.9,2.9-3.9c1.4,0,2,1,2,2.3c0,1.4-0.9,3.5-1.3,5.4c-0.4,1.6,0.8,2.9,2.4,2.9c2.9,0,4.8-3.7,4.8-8.1
		c0-3.3-2.2-5.8-6.3-5.8c-4.6,0-7.5,3.4-7.5,7.3c0,1.3,0.4,2.3,1,3c0.3,0.3,0.3,0.5,0.2,0.8C9,19,8.8,19.7,8.8,20
		c-0.1,0.4-0.4,0.5-0.8,0.4c-2.1-0.9-3.1-3.2-3.1-5.8c0-4.3,3.6-9.5,10.8-9.5c5.8,0,9.6,4.2,9.6,8.7c0,5.9-3.3,10.4-8.2,10.4
		c-1.6,0-3.2-0.9-3.7-1.9c0,0-0.9,3.5-1.1,4.2c-0.3,1.2-1,2.3-1.5,3.2c1.4,0.4,2.8,0.6,4.3,0.6c8.4,0,15.2-6.8,15.2-15.2
		C30.3,6.8,23.5,0,15.2,0z"/>
</g>
</svg>
